<?xml version="1.0" encoding="UTF-8" standalone="no"?>
<!-- Created with Inkscape (http://www.inkscape.org/) -->

<svg
   width="1920.88"
   height="216.20399"
   viewBox="0 0 508.23282 57.203975"
   version="1.1"
   id="svg838"
   inkscape:version="1.1.1 (3bf5ae0d25, 2021-09-20)"
   sodipodi:docname="ground_easteregg.svg"
   xmlns:inkscape="http://www.inkscape.org/namespaces/inkscape"
   xmlns:sodipodi="http://sodipodi.sourceforge.net/DTD/sodipodi-0.dtd"
   xmlns="http://www.w3.org/2000/svg"
   xmlns:svg="http://www.w3.org/2000/svg">
  <sodipodi:namedview
     id="namedview840"
     pagecolor="#000000"
     bordercolor="#999999"
     borderopacity="1"
     inkscape:pageshadow="0"
     inkscape:pageopacity="0"
     inkscape:pagecheckerboard="0"
     inkscape:document-units="mm"
     showgrid="false"
     units="px"
     width="1920.88px"
     inkscape:snap-object-midpoints="true"
     inkscape:snap-smooth-nodes="true"
     inkscape:snap-intersection-paths="true"
     inkscape:object-paths="true"
     inkscape:snap-page="true"
     inkscape:zoom="0.90583672"
     inkscape:cx="891.99298"
     inkscape:cy="-354.3685"
     inkscape:window-width="3840"
     inkscape:window-height="2054"
     inkscape:window-x="-11"
     inkscape:window-y="-11"
     inkscape:window-maximized="1"
     inkscape:current-layer="layer1" />
  <defs
     id="defs835" />
  <g
     inkscape:label="Calque 1"
     inkscape:groupmode="layer"
     id="layer1">
    <path
       style="fill:none;fill-opacity:1;stroke:#b1b1b1;stroke-width:0.26458333;stroke-linecap:butt;stroke-linejoin:miter;stroke-opacity:1;stroke-miterlimit:4;stroke-dasharray:none"
       d="m 350.91069,14.555199 c 0.68144,-4.7276109 3.96095,-11.3717889 13.79946,-13.1180099 9.83852,-1.74624701 24.57498,-3.15175 32.58207,3.662817 8.00712,6.8145389 11.27126,15.6760669 9.96629,16.6530629 -3.60855,2.701617 -6.21214,3.997711 -9.58296,4.301681 -3.73671,0.336965 -16.22716,1.320318 -23.25467,0.468497 -7.02749,-0.851822 -16.35491,-3.449855 -19.97514,-5.66459 -3.62023,-2.214734 -3.53505,-6.303458 -3.53505,-6.303458 z"
       id="path14309"
       sodipodi:nodetypes="cssssssc" />
    <path
       id="path3986"
       style="fill:none;fill-opacity:1;stroke:#8a8a8a;stroke-width:0.26458333;stroke-linecap:butt;stroke-linejoin:miter;stroke-opacity:1;stroke-miterlimit:4;stroke-dasharray:none"
       d="m 353.91484,7.3088571 c -1.88913,2.365744 -2.78778,5.0189809 -3.10886,7.2465859 0,-1e-6 -0.0851,4.08824 3.53518,6.302974 3.62021,2.214735 12.94752,4.812947 19.97501,5.66477 7.02749,0.851821 19.51821,-0.131222 23.25492,-0.468188 3.37082,-0.303969 5.97432,-1.600446 9.58286,-4.302063 0.25249,-0.189037 0.33168,-0.675926 0.24083,-1.383378 -1.09641,0.513428 -2.75109,1.111129 -4.64778,1.197343 -3.40786,0.154902 -8.26151,-1.445581 -15.18047,-2.942973 -6.91901,-1.497393 -12.59917,-1.755597 -18.17566,-3.201355 -5.57649,-1.445758 -11.97893,-3.407652 -14.92207,-7.3318519 -0.21604,-0.288065 -0.39736,-0.545883 -0.55396,-0.781864 z" />
    <g
       id="g2283"
       style="fill:none;stroke:#32cd32;stroke-opacity:1">
      <path
         style="fill:none;fill-opacity:1;stroke:#32cd32;stroke-width:0.26458333;stroke-linecap:butt;stroke-linejoin:miter;stroke-opacity:1;stroke-miterlimit:4;stroke-dasharray:none"
         d="m 0.10451677,57.122866 c 0,0 28.21732023,-36.364568 105.11944323,-41.13369 76.90211,-4.769126 233.88578,-15.69836691 313.7686,-5.563979 79.88281,10.134388 89.11195,46.697669 89.11195,46.697669"
         id="path24614" />
      <path
         style="fill:none;stroke:#32cd32;stroke-width:0.264583px;stroke-linecap:butt;stroke-linejoin:miter;stroke-opacity:1"
         d="m 13.36383,45.162835 6.257171,12.041137 9.694517,-21.878568 10.13302,21.878568 17.670825,-33.005224 13.722779,33.005224 6.350746,-37.816958 19.466361,37.816958 8.564711,-41.214796 16.63278,41.214796 14.43161,-43.162716 14.07048,43.162716 11.07346,-44.700129 17.42863,44.700129 9.66194,-46.255438 20.90551,46.255438 6.73585,-47.6912795 22.17931,47.6912795 8.48825,-49.0546533 27.24263,49.0546533 6.14476,-50.1889239 28.14035,50.1889239 9.27541,-50.8870863 26.86855,50.8870863 9.45882,-49.8240473 21.10862,49.8240473 15.14536,-49.3840029 9.01946,49.3840029 19.75681,-46.778775 11.6368,46.778775 25.04768,-39.086872 5.10669,39.086872 22.19632,-27.137807 -4.02108,27.137807 20.89748,-13.473631"
         id="path1211" />
      <path
         style="fill:none;stroke:#32cd32;stroke-width:0.264583px;stroke-linecap:butt;stroke-linejoin:miter;stroke-opacity:1"
         d="M 0.10451677,57.122866 C 54.235189,29.585752 469.96914,14.444109 508.23283,57.203972"
         id="path1425"
         sodipodi:nodetypes="cc" />
    </g>
    <path
       style="fill:none;stroke:#8a8a8a;stroke-width:0.26458333;stroke-linecap:butt;stroke-linejoin:miter;stroke-opacity:1;stroke-miterlimit:4;stroke-dasharray:none"
       d="m 350.91068,14.555199 5.56763,-4.44079 -0.42974,11.585506 6.57675,-8.334351 1.75014,11.197514 5.01541,-9.140505 4.9253,11.100615 4.8024,-9.483471 2.35196,9.822121 7.91572,-7.832156 1.37766,7.526515 6.96691,-5.566852 2.65144,4.532093 2.36474,-3.954537 2.31066,1.666377 2.33712,-2.86372"
       id="path1899" />
    <path
       style="fill:none;stroke:#b1b1b1;stroke-width:0.264583px;stroke-linecap:butt;stroke-linejoin:miter;stroke-opacity:1"
       d="M 356.47831,10.114409 362.94962,1.8182006 369.39087,15.422573 389.56911,1.2243482 389.38625,19.02968 403.5353,11.956179"
       id="path2066" />
  </g>
</svg>
