<?xml version="1.0" encoding="UTF-8" standalone="no"?>
<!-- Created with Inkscape (http://www.inkscape.org/) -->

<svg
   width="256"
   height="256"
   viewBox="0 0 67.733332 67.733335"
   version="1.1"
   id="svg5"
   sodipodi:docname="itch.svg"
   inkscape:version="1.1.1 (3bf5ae0d25, 2021-09-20)"
   xmlns:inkscape="http://www.inkscape.org/namespaces/inkscape"
   xmlns:sodipodi="http://sodipodi.sourceforge.net/DTD/sodipodi-0.dtd"
   xmlns="http://www.w3.org/2000/svg"
   xmlns:svg="http://www.w3.org/2000/svg">
  <sodipodi:namedview
     id="namedview7"
     pagecolor="#ffffff"
     bordercolor="#999999"
     borderopacity="1"
     inkscape:pageshadow="0"
     inkscape:pageopacity="0"
     inkscape:pagecheckerboard="0"
     inkscape:document-units="mm"
     showgrid="false"
     units="px"
     inkscape:snap-object-midpoints="true"
     inkscape:snap-center="true"
     inkscape:snap-page="true"
     inkscape:snap-intersection-paths="true"
     inkscape:object-paths="true"
     inkscape:snap-midpoints="true"
     inkscape:snap-smooth-nodes="true"
     inkscape:zoom="5.1241863"
     inkscape:cx="111.04202"
     inkscape:cy="77.670868"
     inkscape:window-width="3840"
     inkscape:window-height="2054"
     inkscape:window-x="-11"
     inkscape:window-y="-11"
     inkscape:window-maximized="1"
     inkscape:current-layer="layer1" />
  <defs
     id="defs2">
    <mask
       maskUnits="userSpaceOnUse"
       id="mask8547">
      <rect
         style="opacity:1;fill:#ffffff;fill-opacity:1;stroke:none;stroke-width:0.264583;stroke-linecap:round;paint-order:markers stroke fill"
         id="rect8549"
         width="49.672112"
         height="31.50985"
         x="9.0306082"
         y="18.11174" />
    </mask>
    <mask
       maskUnits="userSpaceOnUse"
       id="mask8547-4">
      <rect
         style="opacity:1;fill:#ffffff;fill-opacity:1;stroke:none;stroke-width:0.264583;stroke-linecap:round;paint-order:markers stroke fill"
         id="rect8549-0"
         width="49.672112"
         height="31.50985"
         x="9.0306082"
         y="18.11174" />
    </mask>
    <filter
       inkscape:collect="always"
       style="color-interpolation-filters:sRGB"
       id="filter38802"
       x="-0.071233949"
       y="-0.079186495"
       width="1.1424679"
       height="1.158373">
      <feGaussianBlur
         inkscape:collect="always"
         stdDeviation="5.0218543"
         id="feGaussianBlur38804" />
    </filter>
  </defs>
  <g
     inkscape:label="Calque 1"
     inkscape:groupmode="layer"
     id="layer1">
    <path
       id="path38438"
       style="fill:#000000;stroke:none;stroke-width:0.999999px;stroke-linecap:butt;stroke-linejoin:miter;stroke-opacity:1;opacity:0.25"
       d="M 212.59766 78.300781 L 163.03906 109.03906 L 162.61914 108.35156 L 159.44531 111.26758 L 102.11523 146.82617 L 111.03711 155.74805 L 63.501953 199.42773 L 119.76562 255.69141 A 127.99999 127.99999 0 0 0 128 256 A 127.99999 127.99999 0 0 0 256 128 A 127.99999 127.99999 0 0 0 255.83594 121.53906 L 212.59766 78.300781 z M 56.007812 83.75 L 49.042969 98.003906 L 63.044922 112.00586 L 76.230469 89.169922 L 56.007812 83.75 z "
       transform="scale(0.26458333)" />
    <path
       id="path38777"
       style="fill:#000000;fill-opacity:1;stroke:none;stroke-width:0.999999px;stroke-linecap:butt;stroke-linejoin:miter;stroke-opacity:1;filter:url(#filter38802);opacity:0.25"
       d="M 128 51.898438 C 104.29891 51.898438 71.991681 52.271885 65.470703 52.835938 L 65.46875 52.835938 C 58.066583 57.220851 43.54332 73.915868 43.402344 78.300781 L 43.402344 85.560547 C 43.402344 92.095363 47.757145 98.072232 53.074219 100.97852 L 57.466797 107.97852 A 284.53971 284.53971 0 0 0 56.283203 128.77539 L 56.283203 128.81055 L 56.240234 137.03711 C 56.381438 153.49111 54.619444 190.36181 63.501953 199.42773 C 77.262964 202.62827 102.59172 204.09453 128.00586 204.10156 C 153.42001 204.10156 178.74876 202.62054 192.50977 199.41992 C 201.39238 190.36812 199.63048 153.49889 199.77148 137.04492 L 199.72852 128.81836 L 199.72852 128.78906 A 280.21826 280.21826 0 0 0 198.54492 107.99219 L 202.94531 100.96875 C 208.25107 98.058037 212.59766 92.084714 212.59766 85.560547 L 212.59766 78.300781 C 212.45645 73.929988 197.91932 57.220851 190.53125 52.835938 C 167.59859 52.032338 151.70107 51.891513 128 51.898438 z "
       transform="scale(0.26458333)" />
    <path
       style="fill:#356ea5;stroke:none;stroke-width:0.264583px;stroke-linecap:butt;stroke-linejoin:miter;stroke-opacity:1;fill-opacity:1"
       d="m 19.4238,29.865918 c 0.182555,0 29.719876,0.03651 29.719876,0.03651 L 51.40735,48.230901 48.632522,51.84548 17.233146,51.188284 16.064797,46.368843 Z"
       id="path28356" />
    <path
       style="fill:#1e3f5e;stroke:none;stroke-width:0.264583px;stroke-linecap:butt;stroke-linejoin:miter;stroke-opacity:1;fill-opacity:1"
       d="m 11.483714,22.638094 3.721132,5.931426 0.491955,1.145969 h 35.989047 l 0.845833,-1.142672 3.717941,-5.934723 z"
       id="path30383" />
    <path
       d="m 17.321883,13.979689 c -1.95849,1.160175 -5.800869,5.577041 -5.838169,6.737216 v 1.921189 c 0,2.430396 2.275578,4.569816 4.336661,4.569816 2.480759,0 4.543704,-2.055486 4.543704,-4.495209 0,2.439723 1.995796,4.495209 4.476555,4.495209 2.477023,0 4.405678,-2.055486 4.405678,-4.495209 0,2.439723 2.120766,4.495209 4.599657,4.495209 h 0.04512 c 2.480759,0 4.599664,-2.055486 4.599664,-4.495209 0,2.439723 1.928648,4.495209 4.407539,4.495209 2.480759,0 4.476555,-2.055486 4.476555,-4.495209 0,2.439723 2.062945,4.495209 4.541836,4.495209 2.057354,0 4.332939,-2.141281 4.332939,-4.569816 v -1.921189 c -0.03736,-1.156439 -3.883416,-5.577041 -5.838176,-6.737216 -6.0676,-0.212619 -10.273694,-0.249911 -16.544601,-0.248079 -6.270914,0 -14.819266,0.09884 -16.544608,0.248079 z m 11.89272,12.081102 a 5.1107339,5.1107339 0 0 1 -0.872929,1.122875 c -0.932618,0.913958 -2.219624,1.482854 -3.631607,1.482854 a 5.1965346,5.1965346 0 0 1 -3.637205,-1.482854 4.8831758,4.8831758 0 0 1 -0.831892,-1.100492 5.127521,5.127521 0 0 1 -0.906499,1.100492 5.200265,5.200265 0 0 1 -3.637204,1.482854 1.5406811,1.5406811 0 0 1 -0.492421,-0.097 75.284465,75.284465 0 0 0 -0.313359,5.502434 v 0.0092 l -0.01128,2.176727 c 0.03736,4.353454 -0.428974,14.108608 1.92119,16.507301 3.640934,0.846809 10.342711,1.234782 17.06687,1.236643 6.72416,0 13.42593,-0.391681 17.066864,-1.238511 2.350191,-2.394957 1.883882,-12.150118 1.921189,-16.503565 l -0.01128,-2.176726 v -0.0078 a 74.141082,74.141082 0 0 0 -0.313359,-5.502406 1.5929076,1.5929076 0 0 1 -0.490588,0.097 5.200265,5.200265 0 0 1 -3.637205,-1.482861 5.0193376,5.0193376 0 0 1 -0.906499,-1.100485 c -0.23687,0.410363 -0.494324,0.768473 -0.83376,1.100485 a 5.1965346,5.1965346 0 0 1 -3.637198,1.480993 c -1.41758,0 -2.697128,-0.565174 -3.633475,-1.479131 a 5.1107339,5.1107339 0 0 1 -0.872928,-1.122869 5.1070035,5.1070035 0 0 1 -0.863602,1.122869 5.1983998,5.1983998 0 0 1 -3.637198,1.480999 H 33.721027 A 5.1983998,5.1983998 0 0 1 30.083823,27.190695 5.1070035,5.1070035 0 0 1 29.21836,26.067827 Z m -3.737924,4.83095 v 0.0037 c 1.482854,0.0037 2.797847,0 4.426192,1.777559 a 37.795183,37.795183 0 0 1 3.96362,-0.199577 c 1.342966,0 2.682197,0.06556 3.963612,0.199577 1.628346,-1.777566 2.943339,-1.771969 4.424331,-1.777566 0.701304,0 3.499172,0 5.446474,5.472585 l 2.094654,7.513161 c 1.551877,5.586368 -0.496157,5.722526 -3.051516,5.726255 -3.786419,-0.139866 -5.88667,-2.891108 -5.88667,-5.642321 -2.096523,0.343179 -4.543704,0.514839 -6.990885,0.516672 -2.447189,0 -4.89437,-0.173493 -6.990892,-0.516672 0,2.75122 -2.098384,5.502434 -5.88667,5.644196 -2.555366,-0.0078 -4.603387,-0.143602 -3.051517,-5.729998 l 2.092787,-7.511286 c 1.949169,-5.472592 4.747016,-5.472592 5.44648,-5.472592 z m 8.389812,4.30682 c -0.0037,0.0037 -3.9916,3.663317 -4.705981,4.965247 l 2.611319,-0.104476 v 2.275584 c 0,0.104477 1.044532,0.06133 2.094662,0.01269 1.048254,0.04864 2.096515,0.09327 2.096515,-0.0148 v -2.275543 l 2.611326,0.102573 c -0.719978,-1.300069 -4.707841,-4.963379 -4.707841,-4.963379 z"
       id="path26654"
       style="stroke-width:1.86523;fill:#112436;fill-opacity:1" />
  </g>
</svg>
