<?xml version="1.0" encoding="UTF-8" standalone="no"?>
<!-- Created with Inkscape (http://www.inkscape.org/) -->

<svg
   width="1920"
   height="350"
   viewBox="0 0 507.99999 92.604169"
   version="1.1"
   id="svg5"
   inkscape:version="1.1.1 (3bf5ae0d25, 2021-09-20)"
   sodipodi:docname="under_construction.svg"
   xmlns:inkscape="http://www.inkscape.org/namespaces/inkscape"
   xmlns:sodipodi="http://sodipodi.sourceforge.net/DTD/sodipodi-0.dtd"
   xmlns="http://www.w3.org/2000/svg"
   xmlns:svg="http://www.w3.org/2000/svg">
  <sodipodi:namedview
     id="namedview7"
     pagecolor="#ffffff"
     bordercolor="#999999"
     borderopacity="1"
     inkscape:pageshadow="0"
     inkscape:pageopacity="0"
     inkscape:pagecheckerboard="0"
     inkscape:document-units="mm"
     showgrid="false"
     units="px"
     inkscape:snap-page="true"
     inkscape:zoom="1.2810466"
     inkscape:cx="939.85652"
     inkscape:cy="315.36714"
     inkscape:window-width="3840"
     inkscape:window-height="2054"
     inkscape:window-x="-11"
     inkscape:window-y="-11"
     inkscape:window-maximized="1"
     inkscape:current-layer="layer1" />
  <defs
     id="defs2">
    <rect
       x="47.669663"
       y="100"
       width="1824.6607"
       height="149.99999"
       id="rect7598" />
  </defs>
  <g
     inkscape:label="Calque 1"
     inkscape:groupmode="layer"
     id="layer1">
    <rect
       style="fill:#ffaf00;stroke:#32cd32;stroke-width:0.313043;stroke-linecap:round;paint-order:markers stroke fill;fill-opacity:1"
       id="rect868"
       width="507.94958"
       height="92.604172"
       x="0.05041831"
       y="7.1054274e-15" />
    <g
       id="g1454"
       transform="translate(2.7969853)">
      <rect
         style="fill:#000000;stroke:#32cd32;stroke-width:0.273251;stroke-linecap:round;paint-order:markers stroke fill"
         id="rect994"
         width="12.805285"
         height="28.220377"
         x="0"
         y="0"
         transform="matrix(1,0,0.34782005,0.93756131,0,0)" />
      <rect
         style="fill:#000000;stroke:#32cd32;stroke-width:0.273251;stroke-linecap:round;paint-order:markers stroke fill"
         id="rect1078"
         width="12.805285"
         height="28.220377"
         x="22.719055"
         y="0"
         transform="matrix(1,0,0.34782005,0.93756131,0,0)" />
      <rect
         style="fill:#000000;stroke:#32cd32;stroke-width:0.273251;stroke-linecap:round;paint-order:markers stroke fill"
         id="rect1088"
         width="12.805285"
         height="28.220377"
         x="45.644646"
         y="0"
         transform="matrix(1,0,0.34782005,0.93756131,0,0)" />
      <rect
         style="fill:#000000;stroke:#32cd32;stroke-width:0.273251;stroke-linecap:round;paint-order:markers stroke fill"
         id="rect1092"
         width="12.805285"
         height="28.220377"
         x="68.363701"
         y="0"
         transform="matrix(1,0,0.34782005,0.93756131,0,0)" />
      <rect
         style="fill:#000000;stroke:#32cd32;stroke-width:0.273251;stroke-linecap:round;paint-order:markers stroke fill"
         id="rect1098"
         width="12.805285"
         height="28.220377"
         x="91.289291"
         y="0"
         transform="matrix(1,0,0.34782005,0.93756131,0,0)" />
      <rect
         style="fill:#000000;stroke:#32cd32;stroke-width:0.273251;stroke-linecap:round;paint-order:markers stroke fill"
         id="rect1102"
         width="12.805285"
         height="28.220377"
         x="114.00835"
         y="0"
         transform="matrix(1,0,0.34782005,0.93756131,0,0)" />
      <rect
         style="fill:#000000;stroke:#32cd32;stroke-width:0.273251;stroke-linecap:round;paint-order:markers stroke fill"
         id="rect1120"
         width="12.805285"
         height="28.220377"
         x="136.93393"
         y="0"
         transform="matrix(1,0,0.34782005,0.93756131,0,0)" />
      <rect
         style="fill:#000000;stroke:#32cd32;stroke-width:0.273251;stroke-linecap:round;paint-order:markers stroke fill"
         id="rect1124"
         width="12.805285"
         height="28.220377"
         x="159.65298"
         y="0"
         transform="matrix(1,0,0.34782005,0.93756131,0,0)" />
      <rect
         style="fill:#000000;stroke:#32cd32;stroke-width:0.273251;stroke-linecap:round;paint-order:markers stroke fill"
         id="rect1128"
         width="12.805285"
         height="28.220377"
         x="182.57858"
         y="0"
         transform="matrix(1,0,0.34782005,0.93756131,0,0)" />
      <rect
         style="fill:#000000;stroke:#32cd32;stroke-width:0.273251;stroke-linecap:round;paint-order:markers stroke fill"
         id="rect1132"
         width="12.805285"
         height="28.220377"
         x="205.29764"
         y="0"
         transform="matrix(1,0,0.34782005,0.93756131,0,0)" />
      <rect
         style="fill:#000000;stroke:#32cd32;stroke-width:0.273251;stroke-linecap:round;paint-order:markers stroke fill"
         id="rect1136"
         width="12.805285"
         height="28.220377"
         x="228.22322"
         y="0"
         transform="matrix(1,0,0.34782005,0.93756131,0,0)" />
      <rect
         style="fill:#000000;stroke:#32cd32;stroke-width:0.273251;stroke-linecap:round;paint-order:markers stroke fill"
         id="rect1140"
         width="12.805285"
         height="28.220377"
         x="250.94228"
         y="0"
         transform="matrix(1,0,0.34782005,0.93756131,0,0)" />
      <rect
         style="fill:#000000;stroke:#32cd32;stroke-width:0.273251;stroke-linecap:round;paint-order:markers stroke fill"
         id="rect1144"
         width="12.805285"
         height="28.220377"
         x="274.48749"
         y="0"
         transform="matrix(1,0,0.34782005,0.93756131,0,0)" />
      <rect
         style="fill:#000000;stroke:#32cd32;stroke-width:0.273251;stroke-linecap:round;paint-order:markers stroke fill"
         id="rect1148"
         width="12.805285"
         height="28.220377"
         x="297.20654"
         y="0"
         transform="matrix(1,0,0.34782005,0.93756131,0,0)" />
      <rect
         style="fill:#000000;stroke:#32cd32;stroke-width:0.273251;stroke-linecap:round;paint-order:markers stroke fill"
         id="rect1152"
         width="12.805285"
         height="28.220377"
         x="320.13214"
         y="0"
         transform="matrix(1,0,0.34782005,0.93756131,0,0)" />
      <rect
         style="fill:#000000;stroke:#32cd32;stroke-width:0.273251;stroke-linecap:round;paint-order:markers stroke fill"
         id="rect1156"
         width="12.805285"
         height="28.220377"
         x="342.8512"
         y="0"
         transform="matrix(1,0,0.34782005,0.93756131,0,0)" />
      <rect
         style="fill:#000000;stroke:#32cd32;stroke-width:0.273251;stroke-linecap:round;paint-order:markers stroke fill"
         id="rect1160"
         width="12.805285"
         height="28.220377"
         x="365.77676"
         y="0"
         transform="matrix(1,0,0.34782005,0.93756131,0,0)" />
      <rect
         style="fill:#000000;stroke:#32cd32;stroke-width:0.273251;stroke-linecap:round;paint-order:markers stroke fill"
         id="rect1164"
         width="12.805285"
         height="28.220377"
         x="388.49582"
         y="0"
         transform="matrix(1,0,0.34782005,0.93756131,0,0)" />
      <rect
         style="fill:#000000;stroke:#32cd32;stroke-width:0.273251;stroke-linecap:round;paint-order:markers stroke fill"
         id="rect1168"
         width="12.805285"
         height="28.220377"
         x="411.42142"
         y="0"
         transform="matrix(1,0,0.34782005,0.93756131,0,0)" />
      <rect
         style="fill:#000000;stroke:#32cd32;stroke-width:0.273251;stroke-linecap:round;paint-order:markers stroke fill"
         id="rect1172"
         width="12.805285"
         height="28.220377"
         x="434.14047"
         y="0"
         transform="matrix(1,0,0.34782005,0.93756131,0,0)" />
      <rect
         style="fill:#000000;stroke:#32cd32;stroke-width:0.273251;stroke-linecap:round;paint-order:markers stroke fill"
         id="rect1176"
         width="12.805285"
         height="28.220377"
         x="457.06607"
         y="0"
         transform="matrix(1,0,0.34782005,0.93756131,0,0)" />
      <rect
         style="fill:#000000;stroke:#32cd32;stroke-width:0.273251;stroke-linecap:round;paint-order:markers stroke fill"
         id="rect1180"
         width="12.805285"
         height="28.220377"
         x="479.78513"
         y="0"
         transform="matrix(1,0,0.34782005,0.93756131,0,0)" />
    </g>
    <g
       id="g1478"
       transform="translate(2.7969861,26.458334)">
      <rect
         style="fill:#000000;stroke:#32cd32;stroke-width:0.273251;stroke-linecap:round;paint-order:markers stroke fill"
         id="rect1076"
         width="12.805285"
         height="28.220377"
         x="99.28492"
         y="42.330563"
         transform="matrix(1,0,0.34782005,0.93756131,0,0)" />
      <rect
         style="fill:#000000;stroke:#32cd32;stroke-width:0.273251;stroke-linecap:round;paint-order:markers stroke fill"
         id="rect1080"
         width="12.805285"
         height="28.220377"
         x="76.565865"
         y="42.330563"
         transform="matrix(1,0,0.34782005,0.93756131,0,0)" />
      <rect
         style="fill:#000000;stroke:#32cd32;stroke-width:0.273251;stroke-linecap:round;paint-order:markers stroke fill"
         id="rect1090"
         width="12.805285"
         height="28.220377"
         x="53.640282"
         y="42.330563"
         transform="matrix(1,0,0.34782005,0.93756131,0,0)" />
      <rect
         style="fill:#000000;stroke:#32cd32;stroke-width:0.273251;stroke-linecap:round;paint-order:markers stroke fill"
         id="rect1094"
         width="12.805285"
         height="28.220377"
         x="30.921217"
         y="42.330563"
         transform="matrix(1,0,0.34782005,0.93756131,0,0)" />
      <rect
         style="fill:#000000;stroke:#32cd32;stroke-width:0.273251;stroke-linecap:round;paint-order:markers stroke fill"
         id="rect1100"
         width="12.805285"
         height="28.220377"
         x="7.9956355"
         y="42.330563"
         transform="matrix(1,0,0.34782005,0.93756131,0,0)" />
      <rect
         style="fill:#000000;stroke:#32cd32;stroke-width:0.273251;stroke-linecap:round;paint-order:markers stroke fill"
         id="rect1104"
         width="12.805285"
         height="28.220377"
         x="-14.723419"
         y="42.330563"
         transform="matrix(1,0,0.34782005,0.93756131,0,0)" />
      <rect
         style="fill:#000000;stroke:#32cd32;stroke-width:0.273251;stroke-linecap:round;paint-order:markers stroke fill"
         id="rect1122"
         width="12.805285"
         height="28.220377"
         x="236.21886"
         y="42.330563"
         transform="matrix(1,0,0.34782005,0.93756131,0,0)" />
      <rect
         style="fill:#000000;stroke:#32cd32;stroke-width:0.273251;stroke-linecap:round;paint-order:markers stroke fill"
         id="rect1126"
         width="12.805285"
         height="28.220377"
         x="213.4998"
         y="42.330563"
         transform="matrix(1,0,0.34782005,0.93756131,0,0)" />
      <rect
         style="fill:#000000;stroke:#32cd32;stroke-width:0.273251;stroke-linecap:round;paint-order:markers stroke fill"
         id="rect1130"
         width="12.805285"
         height="28.220377"
         x="190.57422"
         y="42.330563"
         transform="matrix(1,0,0.34782005,0.93756131,0,0)" />
      <rect
         style="fill:#000000;stroke:#32cd32;stroke-width:0.273251;stroke-linecap:round;paint-order:markers stroke fill"
         id="rect1134"
         width="12.805285"
         height="28.220377"
         x="167.85515"
         y="42.330563"
         transform="matrix(1,0,0.34782005,0.93756131,0,0)" />
      <rect
         style="fill:#000000;stroke:#32cd32;stroke-width:0.273251;stroke-linecap:round;paint-order:markers stroke fill"
         id="rect1138"
         width="12.805285"
         height="28.220377"
         x="144.92957"
         y="42.330563"
         transform="matrix(1,0,0.34782005,0.93756131,0,0)" />
      <rect
         style="fill:#000000;stroke:#32cd32;stroke-width:0.273251;stroke-linecap:round;paint-order:markers stroke fill"
         id="rect1142"
         width="12.805285"
         height="28.220377"
         x="122.21052"
         y="42.330563"
         transform="matrix(1,0,0.34782005,0.93756131,0,0)" />
      <rect
         style="fill:#000000;stroke:#32cd32;stroke-width:0.273251;stroke-linecap:round;paint-order:markers stroke fill"
         id="rect1146"
         width="12.805285"
         height="28.220377"
         x="373.7724"
         y="42.330563"
         transform="matrix(1,0,0.34782005,0.93756131,0,0)" />
      <rect
         style="fill:#000000;stroke:#32cd32;stroke-width:0.273251;stroke-linecap:round;paint-order:markers stroke fill"
         id="rect1150"
         width="12.805285"
         height="28.220377"
         x="351.05334"
         y="42.330563"
         transform="matrix(1,0,0.34782005,0.93756131,0,0)" />
      <rect
         style="fill:#000000;stroke:#32cd32;stroke-width:0.273251;stroke-linecap:round;paint-order:markers stroke fill"
         id="rect1154"
         width="12.805285"
         height="28.220377"
         x="328.12778"
         y="42.330563"
         transform="matrix(1,0,0.34782005,0.93756131,0,0)" />
      <rect
         style="fill:#000000;stroke:#32cd32;stroke-width:0.273251;stroke-linecap:round;paint-order:markers stroke fill"
         id="rect1158"
         width="12.805285"
         height="28.220377"
         x="305.40869"
         y="42.330563"
         transform="matrix(1,0,0.34782005,0.93756131,0,0)" />
      <rect
         style="fill:#000000;stroke:#32cd32;stroke-width:0.273251;stroke-linecap:round;paint-order:markers stroke fill"
         id="rect1162"
         width="12.805285"
         height="28.220377"
         x="282.48312"
         y="42.330563"
         transform="matrix(1,0,0.34782005,0.93756131,0,0)" />
      <rect
         style="fill:#000000;stroke:#32cd32;stroke-width:0.273251;stroke-linecap:round;paint-order:markers stroke fill"
         id="rect1166"
         width="12.805285"
         height="28.220377"
         x="259.76407"
         y="42.330563"
         transform="matrix(1,0,0.34782005,0.93756131,0,0)" />
      <rect
         style="fill:#000000;stroke:#32cd32;stroke-width:0.273251;stroke-linecap:round;paint-order:markers stroke fill"
         id="rect1178"
         width="12.805285"
         height="28.220377"
         x="465.06171"
         y="42.330563"
         transform="matrix(1,0,0.34782005,0.93756131,0,0)" />
      <rect
         style="fill:#000000;stroke:#32cd32;stroke-width:0.273251;stroke-linecap:round;paint-order:markers stroke fill"
         id="rect1182"
         width="12.805285"
         height="28.220377"
         x="442.34262"
         y="42.330563"
         transform="matrix(1,0,0.34782005,0.93756131,0,0)" />
      <rect
         style="fill:#000000;stroke:#32cd32;stroke-width:0.273251;stroke-linecap:round;paint-order:markers stroke fill"
         id="rect1186"
         width="12.805285"
         height="28.220377"
         x="419.41705"
         y="42.330563"
         transform="matrix(1,0,0.34782005,0.93756131,0,0)" />
      <rect
         style="fill:#000000;stroke:#32cd32;stroke-width:0.273251;stroke-linecap:round;paint-order:markers stroke fill"
         id="rect1190"
         width="12.805285"
         height="28.220377"
         x="396.698"
         y="42.330563"
         transform="matrix(1,0,0.34782005,0.93756131,0,0)" />
    </g>
    <g
       aria-label="Under construction"
       transform="matrix(0.26458333,0,0,0.26458333,-0.03541686,5.9783084)"
       id="text7596"
       style="font-size:85.3333px;font-family:Impact;-inkscape-font-specification:Impact;white-space:pre">
      <path
         d="m 665.16679,117.96734 v 45.08332 q 0,7.66666 -0.5,10.79166 -0.5,3.08333 -2.95833,6.375 -2.45833,3.25 -6.5,4.95833 -4,1.66667 -9.45833,1.66667 -6.04166,0 -10.66666,-2 -4.625,-2 -6.91666,-5.20833 -2.29167,-3.20834 -2.70834,-6.75 -0.41666,-3.58333 -0.41666,-15 v -39.91665 h 17.54166 v 50.58332 q 0,4.41666 0.45833,5.66666 0.5,1.20833 1.95833,1.20833 1.66667,0 2.125,-1.33333 0.5,-1.375 0.5,-6.41666 v -49.70832 z"
         id="path1742" />
      <path
         d="m 688.58345,130.13401 -0.29167,5.08333 q 1.83333,-3.04167 4.45833,-4.54167 2.66667,-1.54166 6.125,-1.54166 4.33333,0 7.08333,2.04166 2.75,2.04167 3.54167,5.16667 0.79166,3.08333 0.79166,10.33333 v 38.74998 H 693.45845 V 147.134 q 0,-5.70833 -0.375,-6.95833 -0.375,-1.25 -2.08334,-1.25 -1.79166,0 -2.25,1.45833 -0.45833,1.41667 -0.45833,7.66667 v 37.37498 h -16.83332 v -55.29164 z"
         id="path1744" />
      <path
         d="m 754.37508,117.96734 v 67.45831 h -16.83332 v -4 q -2.41667,2.5 -5.08333,3.75 -2.66667,1.25 -5.58334,1.25 -3.91666,0 -6.79166,-2.04167 -2.875,-2.08333 -3.70833,-4.79166 -0.79167,-2.70833 -0.79167,-8.83333 V 144.884 q 0,-6.375 0.79167,-9.04166 0.83333,-2.66667 3.75,-4.66667 2.91666,-2.04166 6.95833,-2.04166 3.125,0 5.70833,1.125 2.625,1.125 4.75,3.37499 v -15.66666 z m -16.83332,26.08333 q 0,-3.04167 -0.54167,-4.08333 -0.5,-1.04167 -2.04167,-1.04167 -1.49999,0 -2.04166,0.95833 -0.5,0.91667 -0.5,4.16667 v 27.08332 q 0,3.375 0.5,4.45833 0.5,1.04167 1.91666,1.04167 1.625,0 2.16667,-1.16667 0.54167,-1.20833 0.54167,-5.83333 z"
         id="path1746" />
      <path
         d="m 798.54173,158.75899 h -21.79166 v 11.95833 q 0,3.75 0.54167,4.83333 0.54166,1.08334 2.08333,1.08334 1.91667,0 2.54167,-1.41667 0.66666,-1.45833 0.66666,-5.58333 v -7.29166 h 15.95833 v 4.08333 q 0,5.125 -0.66667,7.87499 -0.625,2.75 -3,5.875 -2.37499,3.125 -6.04166,4.70833 -3.625,1.54167 -9.125,1.54167 -5.33333,0 -9.41666,-1.54167 -4.08333,-1.54166 -6.375,-4.20833 -2.25,-2.70833 -3.12499,-5.91666 -0.875,-3.25 -0.875,-9.41667 v -16.12499 q 0,-7.25 1.95833,-11.41666 1.95833,-4.20833 6.41666,-6.41666 4.45833,-2.25 10.25,-2.25 7.08333,0 11.66666,2.70833 4.625,2.66666 6.45833,7.125 1.875,4.41666 1.875,12.45832 z M 781.66674,149.759 v -4.04167 q 0,-4.29166 -0.45834,-5.54166 -0.45833,-1.25 -1.875,-1.25 -1.75,0 -2.16666,1.08333 -0.41667,1.04167 -0.41667,5.70833 v 4.04167 z"
         id="path1748" />
      <path
         d="m 820.87506,130.13401 -0.66667,7.24999 q 3.66667,-7.79166 10.625,-8.24999 v 19.45832 q -4.625,0 -6.79167,1.25 -2.16666,1.25 -2.66666,3.5 -0.5,2.20833 -0.5,10.25 v 21.83332 h -16.83333 v -55.29164 z"
         id="path1750" />
      <path
         d="m 886.83336,151.009 h -15.87499 v -6.375 q 0,-3.33333 -0.54167,-4.5 -0.54167,-1.20833 -2,-1.20833 -1.45833,0 -1.95833,1.04167 -0.5,1.04166 -0.5,4.66666 v 26.08332 q 0,2.95833 0.75,4.45833 0.75,1.45834 2.20833,1.45834 1.70833,0 2.29167,-1.54167 0.625,-1.54167 0.625,-5.83333 v -6.58333 h 14.99999 q -0.0417,6.625 -0.5,9.95833 -0.41667,3.29166 -2.79166,6.79166 -2.33334,3.45833 -6.125,5.25 -3.79167,1.75 -9.375,1.75 -7.12499,0 -11.29166,-2.41667 -4.16666,-2.45833 -5.91666,-6.83333 -1.70834,-4.41666 -1.70834,-12.49999 v -15.70833 q 0,-7.04166 1.41667,-10.62499 1.41667,-3.58334 6.04166,-6.375 4.625,-2.83333 11.25,-2.83333 6.58333,0 11.24999,2.79166 4.66667,2.79167 6.20834,7.04167 1.54166,4.24999 1.54166,12.04166 z"
         id="path1752" />
      <path
         d="m 929.91669,149.55066 v 13.54167 q 0,7.45833 -0.75,10.95832 -0.75,3.45834 -3.20833,6.5 -2.45834,3 -6.33333,4.45833 -3.83334,1.41667 -8.83333,1.41667 -5.58333,0 -9.45833,-1.20833 -3.875,-1.25 -6.04167,-3.70834 -2.125,-2.49999 -3.04166,-5.99999 -0.91667,-3.54167 -0.91667,-10.58333 V 150.759 q 0,-7.70833 1.66667,-12.04166 1.66666,-4.33334 6,-6.95833 4.33333,-2.625 11.08332,-2.625 5.66667,0 9.70833,1.70833 4.08333,1.66667 6.29167,4.375 2.20833,2.70833 3,5.58333 0.83333,2.875 0.83333,8.74999 z M 913.08336,145.384 q 0,-4.25 -0.45833,-5.33333 -0.45833,-1.125 -1.95833,-1.125 -1.5,0 -2,1.125 -0.5,1.08333 -0.5,5.33333 v 24.95832 q 0,3.91667 0.5,5.125 0.5,1.16667 1.95833,1.16667 1.5,0 1.95833,-1.08334 0.5,-1.08333 0.5,-4.66666 z"
         id="path1754" />
      <path
         d="m 952.58333,130.13401 -0.29166,5.08333 q 1.83333,-3.04167 4.45833,-4.54167 2.66666,-1.54166 6.125,-1.54166 4.33333,0 7.08333,2.04166 2.75,2.04167 3.54166,5.16667 0.79167,3.08333 0.79167,10.33333 v 38.74998 H 957.45833 V 147.134 q 0,-5.70833 -0.375,-6.95833 -0.375,-1.25 -2.08333,-1.25 -1.79167,0 -2.25,1.45833 -0.45833,1.41667 -0.45833,7.66667 v 37.37498 h -16.83333 v -55.29164 z"
         id="path1756" />
      <path
         d="m 1014.4583,147.80067 h -14.91666 v -3 q 0,-3.83334 -0.45834,-4.83333 -0.41666,-1.04167 -2.16666,-1.04167 -1.41667,0 -2.125,0.95833 -0.70834,0.91667 -0.70834,2.79167 0,2.54166 0.33334,3.75 0.375,1.16666 2.125,2.58333 1.79166,1.41666 7.29166,4.125 7.3333,3.58333 9.625,6.74999 2.2917,3.16667 2.2917,9.20833 0,6.75 -1.75,10.20833 -1.75,3.41667 -5.875,5.29167 -4.0834,1.83333 -9.87503,1.83333 -6.41666,0 -11,-2 -4.54166,-2 -6.24999,-5.41666 -1.70834,-3.41667 -1.70834,-10.33333 v -2.66667 h 14.91666 v 3.5 q 0,4.45833 0.54167,5.79166 0.58333,1.33334 2.25,1.33334 1.79167,0 2.5,-0.875 0.70833,-0.91667 0.70833,-3.79167 0,-3.95833 -0.91666,-4.95833 -0.95834,-1 -9.79167,-5.91666 -7.41666,-4.16667 -9.04166,-7.54167 -1.625,-3.41666 -1.625,-8.08333 0,-6.62499 1.75,-9.74999 1.75,-3.16667 5.91666,-4.875 4.20834,-1.70833 9.75,-1.70833 5.50003,0 9.33333,1.41666 3.875,1.375 5.9167,3.66667 2.0833,2.29166 2.5,4.25 0.4583,1.95833 0.4583,6.12499 z"
         id="path1758" />
      <path
         d="m 1038,122.75901 v 8.70833 h 4.5416 v 8.75 H 1038 v 29.58332 q 0,5.45833 0.5416,6.08333 0.5834,0.625 4.7084,0.625 v 8.91666 h -6.7917 q -5.75,0 -8.2083,-0.45833 -2.4584,-0.5 -4.3334,-2.20834 -1.875,-1.75 -2.3333,-3.95833 -0.4583,-2.25 -0.4583,-10.49999 v -28.08332 h -3.625 v -8.75 h 3.625 v -8.70833 z"
         id="path1760" />
      <path
         d="m 1063.0833,130.13401 -0.6667,7.24999 q 3.6667,-7.79166 10.625,-8.24999 v 19.45832 q -4.625,0 -6.7916,1.25 -2.1667,1.25 -2.6667,3.5 -0.5,2.20833 -0.5,10.25 v 21.83332 H 1046.25 v -55.29164 z"
         id="path1762" />
      <path
         d="m 1115.3333,130.13401 v 55.29164 h -17.125 l 0.2916,-4.58333 q -1.75,2.79166 -4.3333,4.20833 -2.5416,1.375 -5.875,1.375 -3.7916,0 -6.2916,-1.33333 -2.5,-1.33334 -3.7084,-3.54167 -1.1666,-2.20833 -1.4583,-4.58333 -0.2917,-2.41667 -0.2917,-9.54166 v -37.29165 h 16.8333 v 37.62498 q 0,6.45833 0.375,7.66666 0.4167,1.20834 2.1667,1.20834 1.875,0 2.2083,-1.25 0.375,-1.25 0.375,-8.04167 v -37.20831 z"
         id="path1764" />
      <path
         d="m 1158.5833,151.009 h -15.875 v -6.375 q 0,-3.33333 -0.5417,-4.5 -0.5417,-1.20833 -2,-1.20833 -1.4583,0 -1.9583,1.04167 -0.5,1.04166 -0.5,4.66666 v 26.08332 q 0,2.95833 0.75,4.45833 0.75,1.45834 2.2083,1.45834 1.7083,0 2.2917,-1.54167 0.625,-1.54167 0.625,-5.83333 v -6.58333 h 15 q -0.042,6.625 -0.5,9.95833 -0.4167,3.29166 -2.7917,6.79166 -2.3333,3.45833 -6.125,5.25 -3.7917,1.75 -9.375,1.75 -7.125,0 -11.2917,-2.41667 -4.1666,-2.45833 -5.9166,-6.83333 -1.7084,-4.41666 -1.7084,-12.49999 v -15.70833 q 0,-7.04166 1.4167,-10.62499 1.4167,-3.58334 6.0417,-6.375 4.625,-2.83333 11.25,-2.83333 6.5833,0 11.25,2.79166 4.6666,2.79167 6.2083,7.04167 1.5417,4.24999 1.5417,12.04166 z"
         id="path1766" />
      <path
         d="m 1181.3332,122.75901 v 8.70833 h 4.5417 v 8.75 h -4.5417 v 29.58332 q 0,5.45833 0.5417,6.08333 0.5833,0.625 4.7083,0.625 v 8.91666 h -6.7916 q -5.75,0 -8.2084,-0.45833 -2.4583,-0.5 -4.3333,-2.20834 -1.875,-1.75 -2.3333,-3.95833 -0.4584,-2.25 -0.4584,-10.49999 v -28.08332 h -3.6249 v -8.75 h 3.6249 v -8.70833 z"
         id="path1768" />
      <path
         d="m 1206.9166,117.96734 v 8.79167 h -17.3334 v -8.79167 z m 0,12.16667 v 55.29164 h -17.3334 v -55.29164 z"
         id="path1770" />
      <path
         d="m 1251.0416,149.55066 v 13.54167 q 0,7.45833 -0.75,10.95832 -0.75,3.45834 -3.2084,6.5 -2.4583,3 -6.3333,4.45833 -3.8333,1.41667 -8.8333,1.41667 -5.5834,0 -9.4584,-1.20833 -3.875,-1.25 -6.0416,-3.70834 -2.125,-2.49999 -3.0417,-5.99999 -0.9167,-3.54167 -0.9167,-10.58333 V 150.759 q 0,-7.70833 1.6667,-12.04166 1.6667,-4.33334 6,-6.95833 4.3333,-2.625 11.0833,-2.625 5.6667,0 9.7084,1.70833 4.0833,1.66667 6.2916,4.375 2.2084,2.70833 3,5.58333 0.8334,2.875 0.8334,8.74999 z m -16.8334,-4.16666 q 0,-4.25 -0.4583,-5.33333 -0.4583,-1.125 -1.9583,-1.125 -1.5,0 -2,1.125 -0.5,1.08333 -0.5,5.33333 v 24.95832 q 0,3.91667 0.5,5.125 0.5,1.16667 1.9583,1.16667 1.5,0 1.9583,-1.08334 0.5,-1.08333 0.5,-4.66666 z"
         id="path1772" />
      <path
         d="m 1273.7082,130.13401 -0.2917,5.08333 q 1.8333,-3.04167 4.4583,-4.54167 2.6667,-1.54166 6.125,-1.54166 4.3334,0 7.0834,2.04166 2.75,2.04167 3.5416,5.16667 0.7917,3.08333 0.7917,10.33333 v 38.74998 h -16.8333 V 147.134 q 0,-5.70833 -0.375,-6.95833 -0.375,-1.25 -2.0834,-1.25 -1.7916,0 -2.25,1.45833 -0.4583,1.41667 -0.4583,7.66667 v 37.37498 h -16.8333 v -55.29164 z"
         id="path1774" />
    </g>
  </g>
</svg>
